# xmcd CD database file
#
# Track frame offsets:
#	150
#	15957
#	33125
#	48138
#	65702
#	83373
#	97932
#	112858
#	131163
#	148379
#	160699
#	177218
#	186972
#	202111
#	217488
#	230696
#	241859
#
# Disc length: 3451 seconds
#
# Revision: 0
# Processed by: cddbd v1.5.2PL0 Copyright (c) Steve Scherf et al.
# Submitted via: CDex 1.51
#
DISCID=e60d7911
DTITLE=Jean-Luc Guyard - Le Piano sur Grand Ecran
DYEAR=2011
DGENRE=New Age
TTITLE0=Moment 01
TTITLE1=Moment 02
TTITLE2=Moment 03
TTITLE3=Moment 04
TTITLE4=Moment 05
TTITLE5=Moment 06
TTITLE6=Moment 07
TTITLE7=Moment 08
TTITLE8=Moment 09
TTITLE9=Moment 10
TTITLE10=Moment 11
TTITLE11=Moment 12
TTITLE12=Moment 13
TTITLE13=Moment 14
TTITLE14=Moment 15
TTITLE15=Moment 16
TTITLE16=Moment 17
EXTD=YEAR: 2011
EXTT0=
EXTT1=
EXTT2=
EXTT3=
EXTT4=
EXTT5=
EXTT6=
EXTT7=
EXTT8=
EXTT9=
EXTT10=
EXTT11=
EXTT12=
EXTT13=
EXTT14=
EXTT15=
EXTT16=
PLAYORDER=
